<svg width="120" height="51" viewBox="0 0 120 51" fill="none" xmlns="http://www.w3.org/2000/svg">
<g clip-path="url(#clip0_1606_512)">
<path d="M15.5664 19.9307L30.8256 39.7884H42.5836L21.3836 12.3687L15.5664 19.9307Z" fill="#6F63DE"/>
<path d="M42.6567 0L21.41 27.5118L15.5664 19.9307L30.8986 0H42.6567Z" fill="#6F63DE"/>
<path d="M0 39.7883L13.9533 22.0615L19.7969 29.6426L11.7581 39.7883H0Z" fill="#787878"/>
<path d="M0 0L13.9533 17.7265L19.7969 10.1457L11.7581 0H0Z" fill="#787878"/>
<path d="M45.3438 26.4417C45.3438 24.3923 45.5801 22.5423 46.0526 20.8913C46.5251 19.2407 47.2093 17.8294 48.1049 16.6584C49.0004 15.4874 50.0904 14.5847 51.3757 13.9504C52.6607 13.3162 54.1157 12.999 55.741 12.999C57.6643 12.999 59.3143 13.3772 60.691 14.1335C62.0671 14.8899 63.2032 15.9432 64.0987 17.2929L64.2479 13.487H67.0337V39.4215C67.0337 41.129 66.7765 42.6621 66.2626 44.0203C65.7485 45.3782 65.0229 46.5291 64.0862 47.4726C63.1493 48.4156 62.0174 49.1395 60.691 49.6438C59.364 50.1476 57.8801 50.3999 56.2387 50.3999C55.3932 50.3999 54.5307 50.3061 53.6518 50.1195C52.7726 49.9323 51.9232 49.652 51.1024 49.2779C50.2815 48.9038 49.5062 48.4363 48.7768 47.8753C48.0471 47.314 47.4087 46.6509 46.8615 45.8869L48.5282 44.1304C49.6226 45.4477 50.7829 46.4114 52.0104 47.0214C53.2374 47.6312 54.5807 47.9363 56.0399 47.9363C57.3165 47.9363 58.4485 47.7451 59.4354 47.3631C60.4218 46.9805 61.2549 46.4275 61.9351 45.7035C62.6149 44.9796 63.1329 44.1015 63.4896 43.0689C63.8462 42.0357 64.0243 40.8609 64.0243 39.5436V36.4695C63.1287 37.6893 61.9929 38.645 60.6165 39.3363C59.2399 40.0272 57.5982 40.3732 55.6915 40.3732C54.0829 40.3732 52.6401 40.0438 51.3635 39.385C50.0862 38.7262 49.0007 37.8075 48.1051 36.628C47.2096 35.4494 46.5254 34.0383 46.0529 32.3952C45.5804 30.7528 45.344 28.9391 45.344 26.9545V26.4417H45.3438ZM48.3535 26.9542C48.3535 28.4996 48.511 29.9352 48.826 31.2604C49.1407 32.5862 49.6218 33.7365 50.2687 34.7127C50.9154 35.6883 51.7318 36.4531 52.7187 37.0059C53.7051 37.5593 54.8785 37.8353 56.2385 37.8353C57.2662 37.8353 58.191 37.7132 59.0118 37.4691C59.8326 37.2255 60.5579 36.888 61.1882 36.4567C61.8182 36.0259 62.3654 35.5172 62.8299 34.932C63.2937 34.3462 63.6918 33.7038 64.0237 33.0044V20.7327C63.7418 20.0496 63.381 19.3952 62.9418 18.7688C62.5021 18.143 61.9718 17.5896 61.3499 17.1098C60.7279 16.6303 60.0024 16.2478 59.1732 15.9631C58.3437 15.6786 57.3824 15.5361 56.2879 15.5361C54.9112 15.5361 53.726 15.8165 52.731 16.3777C51.736 16.9387 50.9151 17.7073 50.2685 18.683C49.6218 19.6589 49.1404 20.8139 48.8257 22.1475C48.5104 23.4812 48.3532 24.913 48.3532 26.4415V26.9542H48.3535Z" fill="#787878"/>
<path d="M85.9584 15.9754C85.3281 15.8618 84.6562 15.8048 83.9437 15.8048C82.9318 15.8048 82.0198 15.9511 81.2073 16.2438C80.3948 16.5366 79.6779 16.9475 79.0556 17.4761C78.434 18.0046 77.9115 18.631 77.4887 19.3547C77.0659 20.0786 76.7301 20.8793 76.4815 21.7577V39.885H73.5215V13.4868H76.4315L76.4815 17.6831C77.2109 16.2356 78.2018 15.0932 79.454 14.2551C80.7056 13.4176 82.2437 12.9985 84.0679 12.9985C84.4326 12.9985 84.8059 13.0315 85.1873 13.0961C85.5684 13.1612 85.8504 13.2345 86.0329 13.3157L85.9584 15.9754Z" fill="#787878"/>
<path d="M89.2109 5.85039C89.2109 5.29785 89.3932 4.83004 89.7582 4.44752C90.1229 4.06553 90.6201 3.87427 91.2507 3.87427C91.8807 3.87427 92.3823 4.06553 92.7557 4.44752C93.1284 4.83004 93.3154 5.29758 93.3154 5.85039C93.3154 6.40375 93.1284 6.8672 92.7557 7.24128C92.3823 7.61536 91.8807 7.80227 91.2507 7.80227C90.6204 7.80227 90.1229 7.61536 89.7582 7.24128C89.3932 6.8672 89.2109 6.40375 89.2109 5.85039ZM92.7182 39.8848H89.7332V13.4868H92.7182V39.8848Z" fill="#787878"/>
<path d="M98.3359 26.4418C98.3359 24.3924 98.5762 22.5425 99.057 20.8914C99.5376 19.2408 100.226 17.8295 101.122 16.6585C102.017 15.4875 103.107 14.5848 104.393 13.9506C105.678 13.3163 107.124 12.9991 108.733 12.9991C110.64 12.9991 112.278 13.3735 113.646 14.1214C115.014 14.8695 116.145 15.9024 117.041 17.2198V2.4104H120.001V39.8848H117.215L117.091 36.3718C116.195 37.6245 115.055 38.6043 113.671 39.3119C112.286 40.0192 110.624 40.3733 108.683 40.3733C107.091 40.3733 105.657 40.0439 104.38 39.3852C103.103 38.7264 102.017 37.8076 101.122 36.6282C100.226 35.4495 99.5379 34.0385 99.0573 32.3953C98.5762 30.7529 98.3362 28.9392 98.3362 26.9546V26.4418H98.3359ZM101.345 26.9543C101.345 28.4997 101.503 29.9353 101.818 31.2605C102.133 32.5863 102.614 33.7366 103.261 34.7128C103.907 35.6885 104.724 36.4533 105.711 37.0061C106.697 37.5594 107.871 37.8354 109.23 37.8354C110.242 37.8354 111.158 37.7177 111.979 37.4815C112.8 37.2458 113.53 36.9167 114.168 36.4936C114.806 36.0707 115.362 35.5664 115.835 34.9806C116.307 34.3954 116.709 33.7608 117.041 33.0775V20.684C116.743 20.0173 116.378 19.3749 115.947 18.7567C115.515 18.1387 114.985 17.5897 114.355 17.11C113.725 16.6304 112.995 16.2479 112.166 15.9632C111.337 15.6787 110.375 15.5362 109.281 15.5362C107.904 15.5362 106.719 15.8166 105.723 16.3779C104.729 16.9389 103.908 17.7074 103.261 18.6831C102.615 19.6591 102.133 20.814 101.818 22.1477C101.503 23.4813 101.346 24.9131 101.346 26.4416V26.9543H101.345Z" fill="#787878"/>
</g>
<defs>
<clipPath id="clip0_1606_512">
<rect width="120" height="50.4" fill="white"/>
</clipPath>
</defs>
</svg>
